<svg xmlns="http://www.w3.org/2000/svg" viewBox="0 0 800 800"><defs><style>.cls-1{fill:none;}</style></defs><title>logo2018_1</title><g id="Layer_2" data-name="Layer 2"><g id="Layer_1-2" data-name="Layer 1"><rect class="cls-1" width="800" height="800"/><path d="M329.22,74.73l1.15-14.92q0-13.75-31-13.76a90.85,90.85,0,0,0-55.66,18.36Q219,82.78,219.05,113.75q0,55.09,79.18,55.09a88.36,88.36,0,0,0,25.82-4,92.2,92.2,0,0,1,27-4q13.77,0,13.77,9.18,0,1.15-9.18,5.17a195.62,195.62,0,0,0-22.39,12,176,176,0,0,0-27,20.64q-32.14,29.84-32.14,81.49t31,78.61q31,27,80.33,27t101-28.68a234.21,234.21,0,0,0,83.77-78l8,13.77Q534.63,377.72,457.19,421.9T316,466.08q-63.7,0-97.56-26.4T184.62,371.4a151.61,151.61,0,0,1,20.66-77.47q20.66-35.58,36.15-51.07t22.94-21.81q7.46-6.31,7.47-9.18c0-1.91-.38-2.88-1.15-2.88Q234,222.77,199.54,222.77q-60.83,0-60.83-49.34,0-66.57,75.74-114.76T347,10.47q56.79,0,56.81,27.55,0,17.22-18.36,36.73t-33.27,19.5Q329.22,94.24,329.22,74.73Z"/><path d="M430.45,640.16q-92.5,0-92.5-122.51Q338,419,410.3,327.52t150-91.47q93.73,0,93.73,122.51,0,99.08-72.35,190.34T430.45,640.16Zm49.74-46q47.27,0,79.14-52.62t31.86-131.14q0-128.26-79.75-128.26-46.86,0-78.72,52.82T400.85,465.86Q400.85,594.12,480.19,594.12Z"/><path d="M146.87,705.13H108.26v23.14h37.49v13.66H108.26v32.19h38.61v13.66H93.72V691.47h53.15Z"/><path d="M163.27,727h14v5.43a26.79,26.79,0,0,1,6.86-5.55,15.75,15.75,0,0,1,7.24-1.56A22.68,22.68,0,0,1,203,729l-6.42,12.85a13.41,13.41,0,0,0-7.8-2.87q-11.48,0-11.48,17.34v31.5h-14Z"/><path d="M210.87,701.77a9.16,9.16,0,0,1,9.11-9,8.84,8.84,0,0,1,6.49,2.68,8.64,8.64,0,0,1,2.68,6.42,8.84,8.84,0,0,1-2.68,6.49A8.63,8.63,0,0,1,220,711a9.16,9.16,0,0,1-9.17-9.23ZM227,727v60.76H213V727Z"/><path d="M258.84,682.43v64.25L278.61,727h18.84l-26.39,25.51,28.32,35.24H281.17l-20.09-25.64-2.25,2.25v23.39h-14V682.43Z"/><path d="M351,727h14.1v60.76H351v-6.36q-8.67,8.11-18.65,8.11a26.87,26.87,0,0,1-20.83-9.11q-8.17-9.29-8.17-23.2,0-13.66,8.17-22.77A26.34,26.34,0,0,1,332,725.34q10.6,0,19,8.73Zm-33.31,30.19q0,8.73,4.68,14.22A15.32,15.32,0,0,0,334.5,777a16.1,16.1,0,0,0,12.6-5.36q4.8-5.55,4.8-14.1t-4.8-14.1A15.88,15.88,0,0,0,334.63,738a15.52,15.52,0,0,0-12.1,5.49A20.23,20.23,0,0,0,317.72,757.22Z"/><path d="M420.15,739.19q0-20.34,14.91-34.93a49.07,49.07,0,0,1,35.68-14.6,50.37,50.37,0,0,1,50.09,50.09A47.36,47.36,0,0,1,506,775a49.68,49.68,0,0,1-36,14.53q-18.65,0-33.5-12.91Q420.15,762.34,420.15,739.19Zm14.66.19q0,16,10.73,26.26t24.64,10.29a34.67,34.67,0,0,0,25.58-10.48,35.47,35.47,0,0,0,10.42-25.82q0-15.41-10.29-25.82a35.92,35.92,0,0,0-50.71,0Q434.81,724.16,434.81,739.38Z"/><path d="M534.3,701.77a9.16,9.16,0,0,1,9.11-9,8.84,8.84,0,0,1,6.49,2.68,8.64,8.64,0,0,1,2.68,6.42,8.84,8.84,0,0,1-2.68,6.49,8.63,8.63,0,0,1-6.42,2.68,9.16,9.16,0,0,1-9.17-9.23ZM550.46,727v60.76h-14V727Z"/><path d="M603.54,737.38l-11.6,6.18q-2.75-5.61-6.8-5.61a4.68,4.68,0,0,0-3.31,1.28,4.28,4.28,0,0,0-1.37,3.27q0,3.49,8.11,6.92,11.17,4.8,15,8.86t3.87,10.92A19.13,19.13,0,0,1,601,783.92a22.08,22.08,0,0,1-15.22,5.61q-15.28,0-21.65-14.91l12-5.55a26,26,0,0,0,3.81,5.55A8.68,8.68,0,0,0,586,777q7.11,0,7.11-6.49,0-3.74-5.49-7-2.12-1.06-4.24-2.06t-4.3-2.06q-6.11-3-8.61-6a14.75,14.75,0,0,1-3.18-9.79,17.33,17.33,0,0,1,5.43-13.1,19,19,0,0,1,13.47-5.18Q597.86,725.34,603.54,737.38Z"/><path d="M620.07,682.43h14v49.65q7.49-6.74,16.53-6.74,10.29,0,16.47,6.67,5.24,5.8,5.24,18.53v37.24h-14V751.86q0-7.3-2.59-10.57T647.39,738Q640,738,637,742.56t-2.93,15.84v29.38h-14Z"/><path d="M688,701.77a9.16,9.16,0,0,1,9.11-9,8.84,8.84,0,0,1,6.49,2.68,8.64,8.64,0,0,1,2.68,6.42,8.84,8.84,0,0,1-2.68,6.49,8.63,8.63,0,0,1-6.42,2.68,9.16,9.16,0,0,1-9.17-9.23ZM704.16,727v60.76h-14V727Z"/></g></g></svg>